<svg id="Layer_1" data-name="Layer 1" xmlns="http://www.w3.org/2000/svg" width="194" height="194" viewBox="0 0 194 194">

  <title>logo_da</title>
  
  
      <path d="M110,204a94,94,0,1,1,94-94A94.09,94.09,0,0,1,110,204Z" transform="translate(-13.01 -13.08)" style="fill: #f2efe9"/>
      <path d="M110,19.08a91,91,0,1,1-91,91,91.09,91.09,0,0,1,91-91m0-6a97,97,0,1,0,97,97,97,97,0,0,0-97-97h0Z" transform="translate(-13.01 -13.08)" style="fill: #d14b16"/>
    <circle cx="96.99" cy="96.99" r="93.8" style="fill: none;stroke: #f2efe9;stroke-miterlimit: 10"/>
    <path d="M130.18,57.24V49.67h0c-7.27-2.83-13.92-6.06-19.65-11.81H111V35.49h-1.71V26.17h12.53l-2.37-2.11L121.82,22H109.28V21.16h-1V35.49H106.6v2.37h0.47c-5.73,5.75-12.39,9-19.65,11.81h0v7.57C83,67.44,71.42,71,59.45,74H80c5.81-4.26,10.82-8.92,13.25-15.85h6.21A47.08,47.08,0,0,1,92.63,74h10.94a128.48,128.48,0,0,0,2.11-15.85h6.24A127.94,127.94,0,0,0,114,74H125a47.11,47.11,0,0,1-6.8-15.85h6.21c2.43,6.93,7.44,11.59,13.25,15.85h20.52C146.17,71,134.56,67.44,130.18,57.24Zm-27.53-7.57a42,42,0,0,0,5.57-11.81h1.16a41.91,41.91,0,0,0,5.57,11.81h-12.3Z" transform="translate(-13.01 -13.08)" style="fill: #e33212"/>
      <path d="M51.39,112.22v6.18c0,7.45-3.72,11.7-10.9,11.7s-10.9-4.26-10.9-11.7V94.2c0-7.45,3.72-11.7,10.9-11.7s10.9,4.26,10.9,11.7v4.52H44.48v-5c0-3.32-1.46-4.59-3.79-4.59s-3.79,1.26-3.79,4.59v25.13c0,3.32,1.46,4.52,3.79,4.52s3.79-1.2,3.79-4.52v-6.65h6.92Z" transform="translate(-13.01 -13.08)" style="fill: #981c18"/>
      <path d="M59.6,83h7.31v46.54H59.6V83Z" transform="translate(-13.01 -13.08)" style="fill: #981c18"/>
      <path d="M91,129.58c-0.4-1.2-.67-1.93-0.67-5.72v-7.31c0-4.32-1.46-5.92-4.79-5.92H83v19H75.68V83h11c7.58,0,10.84,3.52,10.84,10.71v3.66c0,4.79-1.53,7.91-4.79,9.44,3.66,1.53,4.85,5.05,4.85,9.91v7.18a13.7,13.7,0,0,0,.8,5.65H91ZM83,89.68V104h2.86c2.73,0,4.39-1.2,4.39-4.92V94.47c0-3.32-1.13-4.79-3.72-4.79H83Z" transform="translate(-13.01 -13.08)" style="fill: #981c18"/>
      <path d="M116,111l-2.26,4.26v14.3h-7.31V83h7.31v20.28L123.31,83h7.31l-10.17,20.75,10.17,25.8h-7.51Z" transform="translate(-13.01 -13.08)" style="fill: #981c18"/>
      <path d="M143.9,83v35.91c0,3.32,1.46,4.52,3.79,4.52s3.79-1.2,3.79-4.52V83h6.92v35.44c0,7.45-3.72,11.7-10.9,11.7s-10.9-4.26-10.9-11.7V83h7.31Z" transform="translate(-13.01 -13.08)" style="fill: #981c18"/>
      <path d="M177.31,82.5c7.11,0,10.77,4.26,10.77,11.7v1.46h-6.91V93.74c0-3.32-1.33-4.59-3.66-4.59s-3.66,1.26-3.66,4.59c0,9.57,14.3,11.37,14.3,24.67,0,7.45-3.72,11.7-10.9,11.7s-10.9-4.26-10.9-11.7v-2.86h6.92v3.32c0,3.32,1.46,4.52,3.79,4.52s3.79-1.2,3.79-4.52c0-9.58-14.3-11.37-14.3-24.67C166.53,86.76,170.19,82.5,177.31,82.5Z" transform="translate(-13.01 -13.08)" style="fill: #981c18"/>
   
      <path d="M68.32,156.91l2.8-18.53h5.7v26.09H72.95V145.77l-2.83,18.71H66.24L63.18,146v18.45H59.6V138.39h5.7Z" transform="translate(-13.01 -13.08)" style="fill: #e33212"/>
      <path d="M86,138.39v20.13c0,1.86.82,2.53,2.12,2.53s2.12-.67,2.12-2.53V138.39h3.88v19.87c0,4.17-2.09,6.56-6.11,6.56s-6.11-2.38-6.11-6.56V138.39H86Z" transform="translate(-13.01 -13.08)" style="fill: #e33212"/>
      <path d="M105,138.09c4,0,6,2.39,6,6.56v0.82h-3.88v-1.08c0-1.86-.74-2.57-2.05-2.57s-2.05.71-2.05,2.57c0,5.37,8,6.37,8,13.83,0,4.18-2.09,6.56-6.11,6.56s-6.11-2.38-6.11-6.56v-1.6h3.88v1.86c0,1.86.82,2.53,2.12,2.53s2.12-.67,2.12-2.53c0-5.37-8-6.37-8-13.83C99,140.48,101,138.09,105,138.09Z" transform="translate(-13.01 -13.08)" style="fill: #e33212"/>
      <path d="M119.94,149.38h5.63v3.73h-5.63v7.64H127v3.73H115.84V138.39H127v3.73h-7.08v7.27Z" transform="translate(-13.01 -13.08)" style="fill: #e33212"/>
      <path d="M135.16,149.38h5.63v3.73h-5.63v7.64h7.08v3.73H131.07V138.39h11.18v3.73h-7.08v7.27Z" transform="translate(-13.01 -13.08)" style="fill: #e33212"/>
      <path d="M145.73,138.39H158.4v3.73h-4.29v22.36H150V142.12h-4.29v-3.73Z" transform="translate(-13.01 -13.08)" style="fill: #e33212"/>
    <path d="M75.61,176.77l-5,3.6,1.9,5.85-5-3.61-5,3.61,1.9-5.85-4.94-3.6H65.7L67.6,171l1.89,5.82h6.12Z" transform="translate(-13.01 -13.08)" style="fill: #fac000"/>
    <path d="M96.31,176.77l-5,3.6,1.9,5.85-5-3.61-5,3.61,1.9-5.85-4.94-3.6H86.4L88.3,171l1.89,5.82h6.12Z" transform="translate(-13.01 -13.08)" style="fill: #fac000"/>
    <path d="M117,176.77l-5,3.6,1.9,5.85-5-3.61-5,3.61,1.9-5.85-4.94-3.6h6.11L109,171l1.89,5.82H117Z" transform="translate(-13.01 -13.08)" style="fill: #fac000"/>
    <path d="M137.72,176.77l-5,3.6,1.9,5.85-5-3.61-5,3.61,1.9-5.85-4.94-3.6h6.11l1.9-5.82,1.89,5.82h6.12Z" transform="translate(-13.01 -13.08)" style="fill: #fac000"/>
    <path d="M158.42,176.77l-5,3.6,1.9,5.85-5-3.61-5,3.61,1.9-5.85-4.94-3.6h6.11l1.9-5.82,1.89,5.82h6.12Z" transform="translate(-13.01 -13.08)" style="fill: #fac000"/>
 
</svg>
