<svg xmlns="http://www.w3.org/2000/svg" width="13.76mm" height="9.78mm" viewBox="0 0 38.99 27.71"><defs><style>.cls-1{fill:none;}.cls-2{fill:#fff;}</style></defs><g id="Layer_1" data-name="Layer 1"><path class="cls-1" d="M25.45,13.81,16.79,9.1c-.35-.2-1.57.05-1.57.46v9.19c0,.4,1.21.66,1.56.47l9-4.48C26.2,14.54,25.81,14,25.45,13.81Z"/><path class="cls-2" d="M29.8,1.46H9.63A7.88,7.88,0,0,0,1.74,9.34v9.39a7.89,7.89,0,0,0,7.89,7.89H29.8a7.89,7.89,0,0,0,7.89-7.89V9.34A7.88,7.88,0,0,0,29.8,1.46Zm-4,13.28-9,4.48c-.35.19-1.56-.07-1.56-.47V9.56c0-.41,1.22-.66,1.57-.46l8.66,4.71C25.81,14,26.2,14.54,25.83,14.74Z"/></g></svg>